<svg width="176" height="73" viewBox="0 0 176 73" fill="none" xmlns="http://www.w3.org/2000/svg">
<path d="M159.631 72.9995H153.902C153.71 73.0042 153.519 72.9734 153.34 72.909C153.16 72.8446 152.997 72.7478 152.859 72.6245C152.721 72.5011 152.612 72.3537 152.537 72.1908C152.462 72.0279 152.424 71.8529 152.424 71.6761C152.424 71.4993 152.462 71.3243 152.537 71.1615C152.612 70.9986 152.721 70.8511 152.859 70.7278C152.997 70.6044 153.16 70.5077 153.34 70.4433C153.519 70.3789 153.71 70.3481 153.902 70.3527H159.631C159.824 70.3481 160.015 70.3789 160.194 70.4433C160.374 70.5077 160.537 70.6044 160.675 70.7278C160.813 70.8511 160.922 70.9986 160.997 71.1615C161.072 71.3243 161.11 71.4993 161.11 71.6761C161.11 71.8529 161.072 72.0279 160.997 72.1908C160.922 72.3537 160.813 72.5011 160.675 72.6245C160.537 72.7478 160.374 72.8446 160.194 72.909C160.015 72.9734 159.824 73.0042 159.631 72.9995ZM142.443 72.9995H136.713C136.52 73.0042 136.329 72.9734 136.15 72.909C135.971 72.8446 135.807 72.7478 135.669 72.6245C135.532 72.5011 135.422 72.3537 135.347 72.1908C135.272 72.0279 135.234 71.8529 135.234 71.6761C135.234 71.4993 135.272 71.3243 135.347 71.1615C135.422 70.9986 135.532 70.8511 135.669 70.7278C135.807 70.6044 135.971 70.5077 136.15 70.4433C136.329 70.3789 136.52 70.3481 136.713 70.3527H142.443C142.635 70.3481 142.827 70.3789 143.006 70.4433C143.185 70.5077 143.348 70.6044 143.486 70.7278C143.624 70.8511 143.734 70.9986 143.808 71.1615C143.883 71.3243 143.922 71.4993 143.922 71.6761C143.922 71.8529 143.883 72.0279 143.808 72.1908C143.734 72.3537 143.624 72.5011 143.486 72.6245C143.348 72.7478 143.185 72.8446 143.006 72.909C142.827 72.9734 142.635 73.0042 142.443 72.9995ZM125.254 72.9995H119.523C119.331 73.0042 119.139 72.9734 118.96 72.909C118.781 72.8446 118.618 72.7478 118.48 72.6245C118.342 72.5011 118.232 72.3537 118.158 72.1908C118.083 72.0279 118.044 71.8529 118.044 71.6761C118.044 71.4993 118.083 71.3243 118.158 71.1615C118.232 70.9986 118.342 70.8511 118.48 70.7278C118.618 70.6044 118.781 70.5077 118.96 70.4433C119.139 70.3789 119.331 70.3481 119.523 70.3527H125.253C125.445 70.3481 125.637 70.3789 125.816 70.4433C125.995 70.5077 126.159 70.6044 126.296 70.7278C126.434 70.8511 126.544 70.9986 126.619 71.1615C126.693 71.3243 126.732 71.4993 126.732 71.6761C126.732 71.8529 126.693 72.0279 126.619 72.1908C126.544 72.3537 126.434 72.5011 126.296 72.6245C126.159 72.7478 125.995 72.8446 125.816 72.909C125.637 72.9734 125.446 73.0042 125.254 72.9995ZM108.062 72.9995H102.333C102.141 73.0042 101.95 72.9734 101.771 72.909C101.591 72.8446 101.428 72.7478 101.29 72.6245C101.152 72.5011 101.043 72.3537 100.968 72.1908C100.893 72.0279 100.855 71.8529 100.855 71.6761C100.855 71.4993 100.893 71.3243 100.968 71.1615C101.043 70.9986 101.152 70.8511 101.29 70.7278C101.428 70.6044 101.591 70.5077 101.771 70.4433C101.95 70.3789 102.141 70.3481 102.333 70.3527H108.062C108.255 70.3481 108.446 70.3789 108.625 70.4433C108.805 70.5077 108.968 70.6044 109.106 70.7278C109.244 70.8511 109.353 70.9986 109.428 71.1615C109.503 71.3243 109.541 71.4993 109.541 71.6761C109.541 71.8529 109.503 72.0279 109.428 72.1908C109.353 72.3537 109.244 72.5011 109.106 72.6245C108.968 72.7478 108.805 72.8446 108.625 72.909C108.446 72.9734 108.255 73.0042 108.062 72.9995ZM90.8737 72.9995H85.1438C84.9515 73.0042 84.76 72.9734 84.5808 72.909C84.4016 72.8446 84.2383 72.7478 84.1004 72.6245C83.9626 72.5011 83.853 72.3537 83.7782 72.1908C83.7034 72.0279 83.6649 71.8529 83.6649 71.6761C83.6649 71.4993 83.7034 71.3243 83.7782 71.1615C83.853 70.9986 83.9626 70.8511 84.1004 70.7278C84.2383 70.6044 84.4016 70.5077 84.5808 70.4433C84.76 70.3789 84.9515 70.3481 85.1438 70.3527H90.8737C91.0661 70.3481 91.2575 70.3789 91.4367 70.4433C91.6159 70.5077 91.7792 70.6044 91.9171 70.7278C92.0549 70.8511 92.1645 70.9986 92.2393 71.1615C92.3141 71.3243 92.3527 71.4993 92.3527 71.6761C92.3527 71.8529 92.3141 72.0279 92.2393 72.1908C92.1645 72.3537 92.0549 72.5011 91.9171 72.6245C91.7792 72.7478 91.6159 72.8446 91.4367 72.909C91.2575 72.9734 91.0661 73.0042 90.8737 72.9995ZM73.685 72.9995H67.9551C67.7628 73.0042 67.5714 72.9734 67.3922 72.909C67.213 72.8446 67.0496 72.7478 66.9118 72.6245C66.7739 72.5011 66.6644 72.3537 66.5896 72.1908C66.5147 72.0279 66.4762 71.8529 66.4762 71.6761C66.4762 71.4993 66.5147 71.3243 66.5896 71.1615C66.6644 70.9986 66.7739 70.8511 66.9118 70.7278C67.0496 70.6044 67.213 70.5077 67.3922 70.4433C67.5714 70.3789 67.7628 70.3481 67.9551 70.3527H73.682C73.8744 70.3481 74.0658 70.3789 74.245 70.4433C74.4242 70.5077 74.5876 70.6044 74.7254 70.7278C74.8633 70.8511 74.9728 70.9986 75.0476 71.1615C75.1224 71.3243 75.161 71.4993 75.161 71.6761C75.161 71.8529 75.1224 72.0279 75.0476 72.1908C74.9728 72.3537 74.8633 72.5011 74.7254 72.6245C74.5876 72.7478 74.4242 72.8446 74.245 72.909C74.0658 72.9734 73.8744 73.0042 73.682 72.9995M56.4934 72.9995H50.7665C50.5741 73.0042 50.3827 72.9734 50.2035 72.909C50.0243 72.8446 49.8609 72.7478 49.7231 72.6245C49.5852 72.5011 49.4757 72.3537 49.4009 72.1908C49.3261 72.0279 49.2875 71.8529 49.2875 71.6761C49.2875 71.4993 49.3261 71.3243 49.4009 71.1615C49.4757 70.9986 49.5852 70.8511 49.7231 70.7278C49.8609 70.6044 50.0243 70.5077 50.2035 70.4433C50.3827 70.3789 50.5741 70.3481 50.7665 70.3527H56.4964C56.6887 70.3481 56.8801 70.3789 57.0594 70.4433C57.2386 70.5077 57.4019 70.6044 57.5397 70.7278C57.6776 70.8511 57.7872 70.9986 57.862 71.1615C57.9368 71.3243 57.9753 71.4993 57.9753 71.6761C57.9753 71.8529 57.9368 72.0279 57.862 72.1908C57.7872 72.3537 57.6776 72.5011 57.5397 72.6245C57.4019 72.7478 57.2386 72.8446 57.0594 72.909C56.8801 72.9734 56.6887 73.0042 56.4964 72.9995M39.3057 72.9995H33.5758C33.3834 73.0042 33.192 72.9734 33.0128 72.909C32.8336 72.8446 32.6703 72.7478 32.5324 72.6245C32.3946 72.5011 32.285 72.3537 32.2102 72.1908C32.1354 72.0279 32.0968 71.8529 32.0968 71.6761C32.0968 71.4993 32.1354 71.3243 32.2102 71.1615C32.285 70.9986 32.3946 70.8511 32.5324 70.7278C32.6703 70.6044 32.8336 70.5077 33.0128 70.4433C33.192 70.3789 33.3834 70.3481 33.5758 70.3527H39.3057C39.4981 70.3481 39.6895 70.3789 39.8687 70.4433C40.0479 70.5077 40.2112 70.6044 40.3491 70.7278C40.4869 70.8511 40.5965 70.9986 40.6713 71.1615C40.7461 71.3243 40.7846 71.4993 40.7846 71.6761C40.7846 71.8529 40.7461 72.0279 40.6713 72.1908C40.5965 72.3537 40.4869 72.5011 40.3491 72.6245C40.2112 72.7478 40.0479 72.8446 39.8687 72.909C39.6895 72.9734 39.4981 73.0042 39.3057 72.9995ZM22.117 72.9995H16.3861C16.1938 73.0042 16.0023 72.9734 15.8231 72.909C15.6439 72.8446 15.4806 72.7478 15.3427 72.6245C15.2049 72.5011 15.0953 72.3537 15.0205 72.1908C14.9457 72.0279 14.9072 71.8529 14.9072 71.6761C14.9072 71.4993 14.9457 71.3243 15.0205 71.1615C15.0953 70.9986 15.2049 70.8511 15.3427 70.7278C15.4806 70.6044 15.6439 70.5077 15.8231 70.4433C16.0023 70.3789 16.1938 70.3481 16.3861 70.3527H22.116C22.3084 70.3481 22.4998 70.3789 22.679 70.4433C22.8582 70.5077 23.0216 70.6044 23.1594 70.7278C23.2972 70.8511 23.4068 70.9986 23.4816 71.1615C23.5564 71.3243 23.595 71.4993 23.595 71.6761C23.595 71.8529 23.5564 72.0279 23.4816 72.1908C23.4068 72.3537 23.2972 72.5011 23.1594 72.6245C23.0216 72.7478 22.8582 72.8446 22.679 72.909C22.4998 72.9734 22.3084 73.0042 22.116 72.9995M5.7359 69.9969C5.38236 69.9975 5.04117 69.8776 4.77824 69.6605C4.57811 69.4956 4.38198 69.3258 4.18985 69.1512C2.87178 67.9448 1.82458 66.5123 1.10775 64.9351C0.960325 64.6112 0.958944 64.2469 1.10391 63.9222C1.24888 63.5974 1.52833 63.3389 1.88078 63.2035C2.23322 63.068 2.6298 63.0667 2.98327 63.1999C3.33673 63.3331 3.61813 63.5899 3.76556 63.9137C4.33841 65.1728 5.1744 66.3166 6.22623 67.2803C6.37833 67.42 6.53444 67.5561 6.69455 67.6876C6.91253 67.8659 7.06634 68.1009 7.13558 68.3613C7.20481 68.6218 7.18619 68.8955 7.08219 69.146C6.97819 69.3966 6.79373 69.6121 6.55328 69.7641C6.31282 69.9161 6.02775 69.9973 5.7359 69.9969ZM170.277 69.9859C169.985 69.9854 169.701 69.9037 169.461 69.7517C169.221 69.5997 169.037 69.3845 168.933 69.1345C168.829 68.8845 168.81 68.6113 168.878 68.3511C168.946 68.0908 169.098 67.8556 169.315 67.6765C169.472 67.5469 169.625 67.4154 169.774 67.2785C170.829 66.3109 171.667 65.1623 172.24 63.898C172.393 63.5825 172.675 63.3344 173.024 63.2069C173.374 63.0795 173.764 63.0826 174.111 63.2157C174.458 63.3488 174.735 63.6013 174.882 63.9193C175.029 64.2373 175.035 64.5956 174.899 64.9176C174.181 66.5015 173.131 67.9403 171.809 69.1521C171.623 69.3222 171.43 69.4886 171.236 69.6485C170.973 69.8667 170.63 69.9872 170.276 69.9868M1.44298 55.3417C1.25371 55.3418 1.06627 55.3076 0.891386 55.2412C0.716499 55.1747 0.557595 55.0772 0.423761 54.9542C0.289928 54.8313 0.183791 54.6853 0.111422 54.5246C0.0390523 54.3639 0.00187014 54.1917 0.00200171 54.0178V48.7537C0.0118987 48.4087 0.168005 48.081 0.437068 47.8402C0.706131 47.5994 1.06688 47.4647 1.44248 47.4647C1.81808 47.4647 2.17883 47.5994 2.44789 47.8402C2.71695 48.081 2.87306 48.4087 2.88296 48.7537V54.0169C2.88296 54.368 2.73114 54.7048 2.46091 54.953C2.19067 55.2013 1.82415 55.3408 1.44198 55.3408M174.56 55.3233C174.177 55.3231 173.811 55.1835 173.541 54.9353C173.271 54.6871 173.119 54.3505 173.119 53.9995V48.7353C173.113 48.5586 173.147 48.3827 173.217 48.2181C173.287 48.0534 173.393 47.9034 173.527 47.7767C173.661 47.6501 173.822 47.5494 173.999 47.4807C174.176 47.412 174.367 47.3765 174.559 47.3765C174.751 47.3765 174.942 47.412 175.119 47.4807C175.297 47.5494 175.457 47.6501 175.591 47.7767C175.726 47.9034 175.831 48.0534 175.901 48.2181C175.971 48.3827 176.005 48.5586 175.999 48.7353V54.0013C175.999 54.3523 175.847 54.6889 175.577 54.9371C175.307 55.1853 174.941 55.3249 174.559 55.3251M1.44098 39.5501C1.25171 39.5502 1.06427 39.5161 0.889385 39.4496C0.714498 39.3831 0.555593 39.2856 0.42176 39.1626C0.287926 39.0397 0.18179 38.8937 0.10942 38.733C0.037051 38.5724 -0.000131226 38.4002 3.47973e-07 38.2263V32.9621C0.00989731 32.6172 0.166004 32.2894 0.435067 32.0486C0.70413 31.8079 1.06488 31.6731 1.44048 31.6731C1.81607 31.6731 2.17683 31.8079 2.44589 32.0486C2.71495 32.2894 2.87106 32.6172 2.88096 32.9621V38.2263C2.88096 38.5774 2.72914 38.9141 2.4589 39.1624C2.18867 39.4106 1.82315 39.5501 1.44098 39.5501ZM174.558 39.5317C174.175 39.5315 173.809 39.3919 173.539 39.1437C173.269 38.8955 173.117 38.5589 173.117 38.2079V32.941C173.111 32.7642 173.145 32.5884 173.215 32.4237C173.285 32.2591 173.391 32.109 173.525 31.9824C173.659 31.8557 173.82 31.7551 173.997 31.6864C174.174 31.6176 174.365 31.5822 174.557 31.5822C174.749 31.5822 174.94 31.6176 175.117 31.6864C175.295 31.7551 175.455 31.8557 175.589 31.9824C175.724 32.109 175.829 32.2591 175.899 32.4237C175.969 32.5884 176.003 32.7642 175.997 32.941V38.2051C175.997 38.5562 175.845 38.8927 175.575 39.141C175.305 39.3892 174.939 39.5287 174.557 39.529M1.44298 23.7567C1.25371 23.7568 1.06627 23.7227 0.891386 23.6562C0.716499 23.5897 0.557595 23.4922 0.423761 23.3692C0.289928 23.2463 0.183791 23.1003 0.111422 22.9396C0.0390523 22.7789 0.00187014 22.6067 0.00200171 22.4329V17.1696C-0.00306876 16.9929 0.03044 16.817 0.100551 16.6524C0.170662 16.4878 0.275955 16.3377 0.410217 16.211C0.544479 16.0844 0.704991 15.9837 0.882282 15.915C1.05957 15.8463 1.25005 15.8109 1.44248 15.8109C1.63491 15.8109 1.82539 15.8463 2.00268 15.915C2.17997 15.9837 2.34048 16.0844 2.47474 16.211C2.609 16.3377 2.7143 16.4878 2.78441 16.6524C2.85452 16.817 2.88803 16.9929 2.88296 17.1696V22.4329C2.88296 22.784 2.73114 23.1207 2.46091 23.369C2.19067 23.6172 1.82415 23.7567 1.44198 23.7567M174.56 23.7392C174.177 23.739 173.811 23.5994 173.541 23.3512C173.271 23.103 173.119 22.7664 173.119 22.4154V17.1503C173.128 16.8054 173.285 16.4776 173.554 16.2368C173.823 15.9961 174.183 15.8613 174.559 15.8613C174.935 15.8613 175.295 15.9961 175.564 16.2368C175.833 16.4776 175.99 16.8054 175.999 17.1503V22.4163C175.999 22.7673 175.847 23.1039 175.577 23.3521C175.307 23.6004 174.941 23.7399 174.559 23.7402M1.44298 7.96607C1.06081 7.96607 0.69429 7.82659 0.424055 7.57832C0.153819 7.33005 0.00200171 6.99332 0.00200171 6.64221V1.37621C-0.00306876 1.19948 0.03044 1.02362 0.100551 0.858981C0.170662 0.694346 0.275955 0.54428 0.410217 0.417637C0.544479 0.290993 0.704991 0.190337 0.882282 0.121609C1.05957 0.0528813 1.25005 0.017472 1.44248 0.017472C1.63491 0.017472 1.82539 0.0528813 2.00268 0.121609C2.17997 0.190337 2.34048 0.290993 2.47474 0.417637C2.609 0.54428 2.7143 0.694346 2.78441 0.858981C2.85452 1.02362 2.88803 1.19948 2.88296 1.37621V6.64221C2.88269 6.99324 2.73079 7.32983 2.46061 7.57805C2.19043 7.82627 1.82407 7.96582 1.44198 7.96607M174.56 7.94676C174.177 7.94676 173.811 7.80728 173.541 7.55901C173.27 7.31074 173.119 6.97401 173.119 6.62291V1.35874C173.113 1.18201 173.147 1.00614 173.217 0.841509C173.287 0.676874 173.393 0.526808 173.527 0.400165C173.661 0.273521 173.822 0.172865 173.999 0.104137C174.176 0.0354093 174.367 0 174.559 0C174.751 0 174.942 0.0354093 175.119 0.104137C175.297 0.172865 175.457 0.273521 175.591 0.400165C175.726 0.526808 175.831 0.676874 175.901 0.841509C175.971 1.00614 176.005 1.18201 175.999 1.35874V6.62291C175.999 6.97401 175.848 7.31074 175.577 7.55901C175.307 7.80728 174.941 7.94676 174.559 7.94676" fill="#3E2180"/>
</svg>
