<svg width="195" height="69" viewBox="0 0 195 69" fill="none" xmlns="http://www.w3.org/2000/svg">
<path d="M195 69H172.176V11.0335C172.176 9.87628 171.883 8.73037 171.312 7.6612C170.742 6.59204 169.905 5.62058 168.85 4.80233C167.795 3.98409 166.543 3.3351 165.164 2.89245C163.786 2.44981 162.309 2.22219 160.817 2.22259H14.2242C12.7324 2.22219 11.2551 2.44981 9.87671 2.89245C8.49836 3.3351 7.24596 3.98409 6.19109 4.80233C5.13622 5.62058 4.29956 6.59204 3.72891 7.6612C3.15826 8.73037 2.86481 9.87628 2.86533 11.0335V67.8883H3.48266e-08V11.0335C-0.00013068 9.58449 0.367699 8.1497 1.08248 6.81101C1.79727 5.47233 2.84501 4.25597 4.16587 3.2314C5.48673 2.20683 7.05484 1.39411 8.78066 0.839665C10.5065 0.285218 12.3562 -0.000101366 14.2242 2.70145e-08H160.817C162.685 -0.000101366 164.535 0.285218 166.261 0.839665C167.986 1.39411 169.554 2.20683 170.875 3.2314C172.196 4.25597 173.244 5.47233 173.959 6.81101C174.673 8.1497 175.041 9.58449 175.041 11.0335V66.7782H195V69Z" fill="#3E2180"/>
</svg>
