<svg width="341" height="94" viewBox="0 0 341 94" fill="none" xmlns="http://www.w3.org/2000/svg">
<path d="M336.143 1.01074C336.143 1.01074 350.564 49.701 302.1 53.895C253.636 58.0891 28.4988 53.895 28.4988 53.895C28.4988 53.895 2.45828 54.1762 4.07202 86.9247" stroke="#3E2180"/>
<path d="M337 8C339.209 8 341 6.20914 341 4C341 1.79086 339.209 0 337 0C334.791 0 333 1.79086 333 4C333 6.20914 334.791 8 337 8Z" fill="#3E2180"/>
<path d="M4 94C6.20914 94 8 92.2091 8 90C8 87.7909 6.20914 86 4 86C1.79086 86 0 87.7909 0 90C0 92.2091 1.79086 94 4 94Z" fill="#3E2180"/>
</svg>
